<?xml version="1.0" encoding="UTF-8"?>
<svg id="Capa_1" data-name="Capa 1" xmlns="http://www.w3.org/2000/svg" viewBox="0 0 6736.44 1945.15">
  <path d="M979.2,1002.69h35.52l-14.14-63.74h-474.5l13.21,63.43h71.71l125.74,551.63c7.93,39.64,0,76.64-47.57,76.64-39.64,0-55.5-29.07-66.07-76.64L377.3,393.79c-7.93-39.64-2.64-76.64,47.57-76.64,63.43,0,97.79,81.93,97.79,192.93,0,52.86-7.93,95.14-13.21,126.86l375.29,44.93c2.64-34.36,5.29-68.71,5.29-103.07C890.01,229.93,707.65,0,379.94,0-21.78,0-21.78,274.86,15.22,459.86l216.72,1028.08c47.57,235.22,137.43,457.22,502.14,457.22,407,0,391.15-282.79,354.15-457.22l-109.03-485.25Z"/>
  <path d="M2000.01,1390.15c-55.5-272.22-171.36-411.37-462.07-411.37l-5.29-21.14c290.72-5.28,367.36-66.07,317.15-306.57l-48-236.13c-39.64-185-97.79-388.5-470.43-388.5h-473.07l401.72,1894.94h375.29l-195.14-918.8h58.14c39.64,0,52.86,13.21,66.07,66.07l105.29,495.94c26.43,137.43,63.43,288.07,113.64,356.79h385.86c-68.71-84.57-100.43-211.43-134.79-372.64l-34.36-158.57ZM1485.08,939.13h-58.14l-124.64-587.63h58.14c31.71,0,52.86,18.5,66.07,74l92.93,436.99c13.21,55.5,2.64,76.64-34.36,76.64Z"/>
  <path d="M2737.34,459.86C2697.7,269.57,2626.34,0,2232.55,0s-399.07,269.57-359.43,459.86l216.72,1028.08c47.57,235.22,140.07,457.22,504.79,457.22s409.64-219.36,359.43-457.22l-216.72-1028.08ZM2544.41,1630.65c-37,0-52.86-29.07-63.43-76.64l-245.79-1160.22c-10.57-42.29,2.64-76.64,47.57-76.64,42.29,0,55.5,31.71,66.07,76.64l245.79,1160.22c10.57,47.57-5.28,76.64-50.21,76.64Z"/>
  <polygon points="3226.24 26.43 3448.24 1070.36 3427.09 1070.36 3054.45 26.43 2724.09 26.43 3125.81 1921.37 3479.95 1921.37 3231.52 761.15 3252.66 761.15 3654.38 1921.37 3990.03 1921.37 3585.67 26.43 3226.24 26.43"/>
  <polygon points="5092.02 26.43 5284.96 935.58 5173.96 935.58 4981.03 26.43 4605.74 26.43 5007.45 1921.37 5382.74 1921.37 5187.17 999.01 5298.17 999.01 5493.74 1921.37 5869.03 1921.37 5467.31 26.43 5092.02 26.43"/>
  <path d="M6720.01,1487.94l-216.71-1028.08C6463.65,269.57,6392.3,0,5998.51,0s-399.07,269.57-359.43,459.86l216.71,1028.08c47.57,235.22,140.07,457.22,504.79,457.22s409.64-219.36,359.43-457.22ZM6310.37,1630.65c-37,0-52.85-29.07-63.43-76.64l-245.78-1160.22c-10.57-42.29,2.64-76.64,47.57-76.64,42.28,0,55.5,31.71,66.07,76.64l245.79,1160.22c10.57,47.57-5.29,76.64-50.22,76.64Z"/>
  <path d="M4712.44,935.17h-364l133.12,618.84c7.93,47.57-2.64,76.64-47.57,76.64-39.64,0-55.5-29.07-66.07-76.64l-245.78-1160.22c-6.75-30.39-3.71-52.66,11.02-65.19,9.14-8,20.73-11.17,37.26-11.43.05,0,.1,0,.15,0h0c.39-.01.78-.04,1.17-.03,40.71,1.03,51.14,31.1,61.71,76.03l65,301,373,47-60-282c-36.04-172.97-104-408-390.23-452.73l.02-.12c-28.18-4.18-57.69-6.32-88.53-6.32-1.88,0-3.73.02-5.59.03-1.86-.01-3.72-.03-5.6-.03-18.62,0-35.45.54-52.38,1.7-331.4,28.16-346.44,278.83-309.08,458.16l216.71,1028.08c47.58,235.22,134.79,457.22,499.5,457.22,404.36,0,391.15-277.5,354.14-457.22l-117.98-552.76Z"/>
</svg>